<svg xmlns="http://www.w3.org/2000/svg" width="400" height="154.7"><defs/><g fill-rule="evenodd"><path d="M142 11v-1 1m-10 0v0m10 6c0 1 0 1 0 0v-1 1m-10 0v0m142 2h-2-3v1h-1-1-1v1h-1l-1 1-2 1v1h-1v1l-1 1h-1v1h-1v2h-1v1l-1 1v2l-1 1v9a26 26 0 000 7v1l1 1v2l1 1v1l1 1v1l1 1 2 2v1h2v1h1v1h2v1h1l2 1h2a43 43 0 009 0l2-1h2l1-1 2-1 1-1v-2l-1-2v-1-1l-1-1v-1l-1-1v-1h-1v-1h-1-1v1h-1-2v1h-5v-1h-1l-1-1h-1v-1l-1-1v-1h-1v-1a29 29 0 010-10h1v-2h1v-1l1-1h1v-1h7l1 1h2l1-2h1v-1l1-3h1v-5h-1v-1h-1l-1-1h-1l-1-1h-1-2-1-4m21 0h-1l-1 1c-1 0-1-1-1 22 0 25 0 23 2 23h1a49 49 0 009 0h2v-8-8h1v1h1v2l1 1v1l1 1v1l1 2 1 1v1h1v2h1v2l1 1h1l2 1 4-1h2l1-1h1v-1l2-1 1-1 1-2h-1v-1l-1-1v-1l-1-1-1-1-1-1v-1l-1-1-1-2h-1v-1h-1v-1l-1-1v-1h-1v-1l-1-1-1-1v-1l1-1v-1h1v-2h1v-1l1-1v-1h1v-1-1h1v-1-1h1v-1-1h1v-1-1h1v-1h1v-1-1h1v-1l-1-2h-2l-1-1a41 41 0 00-9 1l-2 1v1l-1 1v1l-1 1v2h-1v1l-1 1v2h-1v2h-1v2h-1v-7c0-9 0-8-1-8v-1h-1-9m37 0l-1 1v1l-1 1v6l1 2v1l8 1h1v33h1a29 29 0 0012 0V48c0-15 0-17 1-16h7l1-3 1-4-1-3v-1l-1-2h-29m-141 0l-1 1a1221 1221 0 002 45l4 1 5-1h1l1-7v-5h2l2-1h3l2-1h1l1-1h1l1-1a10 10 0 003-3v-1l1-1 1-1v-2l1-1v-1a43 43 0 000-9l-1-2v-1h-1v-1l-1-2-1-1h-1v-1h-1l-1-1h-1-1v-1h-4l-2-1h-16m36 0l-1 1v2a23 23 0 000 7v1l3 1h3v23h-5l-1 1v9l1 1v1h11l13-1v-1-1l1-3-1-4v-1-1h-5V31h2l3-1v-1a23 23 0 000-8v-1h-1v-1h-23m140 0v1a1747 1747 0 001 45 106 106 0 0025-1h1l1-1h1v-1h1a51 51 0 011-2h1v-1l1-9-1-1v-1-1l-1-1v-1h-1l-2-2-1-1h-1l1-1 2-2 1-2v-1l1-1v-1-5-1-1-1h-1v-1-1h-1v-1h-1v-1h-1l-1-1h-1l-1-1h-2-1l-12-1h-9m-240 3c0-1 0-1 0 0m15 1v-1 1m0 7v-1 1m-9 0c0 1 0 1 0 0m250 1h2v6h-1v1h-1-3v-4-4l3 1M35 31l1 1v-1h-1m172 1h1l1 1v5h-1v1l-1 1h-1v1h-3V31h2l2 1m-64 4v-1 1m-98 0l1 1 1 1-2-2m88 1c0 1 0 1 0 0v-1 1m10 5v0c0-1 0 0 0 0m-18 4h1v-1l-1 1M4 46H3l1-1v1m378 1h2l1 1v1l1 3-1 1-1 1-4 1v-8h2m-239 3v-1 1m-9 0v0c0-1 0-1 0 0M0 55v-1 1m106 1v-1 1m-75 2h1-1m-21 8h0m61 1v0m156 17l1 1v-1h-1m32 0v0m33 1h1-1m47 4v0m-50 1v0m-119 1h1-1m-38 2v0m-5 1h1-1m3 0h1l1 1v-1h-2m40 1h1-1m169 0v0m-212 1c-5 2-10 6-16 14l-1 2h10c2 1 2 1 1 2-2 2-3 5-1 4h9c3 1 6 0 8-1a16 16 0 004-3l1-1c1-3 0-6-2-11-4-5-8-7-13-6m162 2v0m-200 2h0s-1 0 0 0m251 1v0m-187 0v0m173 4v-1 1m-184 0v0m146 1c0 1 0 1 0 0m13 1l1 1v-1h-1m-158 0v0c0-1 0-1 0 0m112 1c0 1 0 1 0 0v-1 1m85-1v0m-122 1v-1 1m-113 0v1l1-1h-1m38 0v1l1 1v-1l-1-1m184 2v0m-39 3v0m52 1c0-1 0 0 0 0m-275 0c-1 0 0 1 0 0h1-1m11 0h0m225 1v-1 1m-224 0h2v1l-2-1m-14 0h-1-1l-1 1h1l1-1h1m264 0v0m-248 1h0m-20 0v1l1-1h-1m-1 1h0m14 0c-6 2-13 6-20 14l-2 3c3-1 7-1 12 2l1 1-3 5h5l7 2c5 1 9 1 12-1 4-2 5-5 6-8l-1-6c-2-5-5-8-8-10l-3-2h-6m-15 0l-1 1-1 1h-1v1h-2v1s-1 0 0 0l3-2 2-1h1v-1h-1m51 2h0m-1 0h-1l1 1v-1h0m36 1v-1 1m197-1l1 2v-1l-1-1m-235 1h0m222 1v-1 1m-185 0l-1 1-1 2-1 1 1-1 1-1 1-1 1-2-1 1m-3 1h-1v2l-1 1v1h1v-1c0 1 0 1 0 0-1 0-1 0 0 0v-1l1-1v-1l1-1-1 1m149-1v0m-237 0l-1 1 1-1m58 0l-1 1-1 1v1l1-1v-1l1-1m-59 1h-1 1m-4 1v0l1-1h1-2v1m255 0v-1 1m-164 0l-1 1 1-1 1-1-1 1m-18 1h1l-1-1v1m-12 1v-1 1m-61-1v1h1v1l2 1c-1 0-1 0 0 0l1-1h-1-1l-2-2m75 0h1c0 1 0 1 0 0h-1m14 0h0m-1 1h0m-11 0h1v1h1l-1-1h-1m10 0v1l1-1h-1m104 1h1l-1-1v1m-27-1l1 2v-1a23 23 0 01-1-1m-85 1h2-2m7 0h-1-1 2m209 0v0m-213 0h1c1 0 1 0 0 0h-1m-80 1h-1l-1 1h1l1-1m-3 1l-1 1v0h2v-1h-1m59 2l-1 1h1v-1m-62 1l-2 1h1l1-1v-1 1m48 0v-1 1m0 1h1l-1-1v1m99-1l1 1v-1h-1m10 0v1l1-1h-1m28 1v-1 1m-137 0l1 1v-1h-1m1 2v-1 1m-53 0a19 19 0 00-2 3v1h-1l1-1 1-1 1-1 1-2-1 1m53 1v-1 1m-56 3v1l-1 1v0l1-1v-1m15 3v1h1l-1 1h-1 2v-1s1 0 0 0l-1-1m-2 1h1-1m-1 0h-1v1l1-1h1-1m-14 0v1l1-1h-1m11 1h0m-11 0v0m10 0h0m-1 0v1l1-1h-1m7 1h-1l-1 1-1 1v1l1-2 1-1 1-1v1m-8 0h-2v1h-1l-1 1 1-1h2l1-1h0m-9 1h1-1m58 0v1s-1 0 0 0v-1m-58 1v-1 1m4 0l-1 1-2 1h-1v1h1l1-1v-1h2v-1h1-1m53 1v1l-5 5h-1 1a30 30 0 005-6h0m-57 0v0m14 0l-1 1v0h1v-1m7 1l2 1 1-1h-3m31 1a271 271 0 01-1 2v1h-1l-1 1v1h2v-1l-1 1v-1l1-2 1-1 1-1h-1 0m-32 0h-1 1m5 0h1-1m-12 0v0m5 0v0h0m9 0h1v1h1v-1h-2m-11 1l-1 2h-1s0 1 0 0h1l1-1 1-1h-1m13 0h1l1 1h1l1 1-3-2h-1m-16 2v-1 1m20 0h0m2 0v0m11 0v1l1-1h-1m-32 1v0m22 0l1 1v-1h-1m8 0v1l1-1h-1m-6 1h1l-1-1v1m4 0h1v-1l-1 1m-29 0h0m26 0h0" fill="#f99245"/><path d="M126 94a14 14 0 00-5 1l-2 1a24 24 0 00-6 4 40 40 0 01-4 2l-2 1-1 1 3 2c1 0 1 0 0 0l-1 1-2 1-1 1a28 28 0 00-5 6l-2 4-1 2v2c0 2 0 2 1 1h1l2-2h1a16 16 0 013-2h1v-1h3l1-1c2 0 3 0 2 1l-3 2-1 1v2h-1v2l1 1v1l3-4 3-1h6v1h2l1 1h2l1 1c0-1 0 0 0 0h7l1-1 1-1h1l1-1 1-1h1l1-1-1 1v1l-1 1v1c-1 0-1 0 0 0 0 1 0 1 0 0a18 18 0 003-3l1-1v-1h1v-1l1-8v-1l-1-1v-1-1l-1-1v-1l-1-1v-1a29 29 0 00-7-7l-1-1h-1v-1h-1-1-4m6 2c7 2 12 12 10 17l-1 1v1l-4 2c-2 1-5 2-8 1h-9c-2 1-1-2 1-4 1-1 1-1-1-2h-10l1-2c8-10 15-15 21-14m-63 18h-2-1-1l-1 1h-1-1l-1 1h-1v1h-2v1h-1l-2 1h-1l-1 1-1 1h-1l-1 1h-1-1-1-1v2l2 2h2l-1 1h-1l-1 1h-1l-1 1h-1v1h-1l-2 2-1 1h-1l-1 1a9 9 0 00-1 2l-1 1v1h-1v1l-1 1v2l-1 1v2l-1 1c1 0 0 0 0 0v2h1l1-1h1l2-1v-1h2l2-1h1v-1h3l1-1h1c-1 0 0 0 0 0h2l1-1 1 1c1 0 0 0 0 0v1h-1-1l-3 3v1l-1 1v6l1-1v-1h1l2-2 1-1h2l1-1h3l2 1h2l1 1h1l2 1 1 1h2v1h11v-1h2l1-1h1v-1a526 526 0 000 3v1l1-1a29 29 0 007-7v-1l1-2a26 26 0 00-1-10v-1-1-1l-1-2a48 48 0 00-4-7 25 25 0 00-6-5v-1h-2l-1-1h-1-6m9 3l3 2c3 2 6 5 8 10l1 4c1 5-5 11-12 11h-6l-7-2h-5l3-5-1-1c-5-3-9-3-12-2l2-3c7-8 14-12 20-14h6" fill="#ed433a"/><path d="M129 0l-1 1h-2v1h-1-1s0 1 0 0v1h-1-1l-1 1h-1v1h-1-1l-1 1h-1l-1 1h-1l-1 1h-1-1v1h-1-1v1h-1l-1 1h-2v1h-1l-2 1-2 1-1 1h-1-1l-1 1-1 1h-1-1v1h-1-1v1h-1l-1 1h-1-1v1h-1l-1 1h-2l-1 1h-1v1h-1-1s0 1 0 0v1h-1-1v1h-2v1h-1-1s0 1 0 0l-1 1-2 1h-1l-1 1h-1-1v1h-1l-1 1h-1v1h-1-1l-1 1h-1l-1 1h-1l-2 1-2 1-1 1h-1l-1 1h-1l-1 1v-1h-1l-2-2a23 23 0 00-2-3l-3-1-1-1h-1-1-4-1-1-1v1h-1-1s0 1 0 0v1h-1l-1 1h-2l-1 1h-1v1h-1-1v1h-1-1v1h-2l-1 1h-1l-1 1h-1s0 1 0 0v1h-2l-1 1H8l-1 1H6l-1 1a11 11 0 00-3 3v1l-1 1v2l-1 1v3s1 0 0 0l1 1v3h1v1l1 1 1 1 3 2h1l1 1h7v-1h2v-1c0 1 0 1 0 0h2v-1h2v-1h2l1-1 2-1h1l1-1h4l1 2 1 1v1h1v1l2 1v1l2 2v1l1 1 1 1s0 1 0 0l1 2 2 2 1 1v1l1 1 1 1 1 1 1 2 2 2 1 1a57 57 0 003 5l1 1 1 1 1 1v1l1 1 1 1v1h1v1h1v1l1 1v1l1 1h1v1l1 1s0 1 0 0l1 1v1l1 1h-1v2h-1v3l-1 1 1 1h7l2-1v-1l1-1v-1-1l2-1v-1-2l-1-1v-1l-1-1-2-2v-1l-1-1-1-1v-1l1-1h1l1-1h2v-1h1l1 1v1l1 1 1 1 1 1h1l1 1h9v-1h2v-1h2v-1h1l2-1 2-1 1-1h2s0-1 0 0v-1h1l1-1c0 1 0 0 0 0h2v-1h2v-1h1l1-1h2l1-1h1l1-1h1v-1h2v-1h2l1-1h1v-1h2l1-1h1l1-1a41 41 0 016-3h2v-1h10v1h2l1 1h1l1 1 2 1 1 1v1l1 1v1h1l1 1v2l1 1v10h-1v2l-1 1v1h-1v1l-2 2v1h-1l-1 1-1 1h-1l-1 1h-1-1l-1 1h-1-1-2v7 2h6v-1h3v-1h2l1-1h1l1-1h1v-1h1a43 43 0 007-7v-1-1h1v-1-1h1v-1-1-1l1-1v-1-1-1a25 25 0 000-9v-1h-1v-1-1-1h-1v-1-1h-1v-1l-1-1v-1l-2-2a40 40 0 00-6-5v-1h-2v-1c0 1 0 0 0 0h-1-1v-1h-1-1-1v-1h-1-2-1a59 59 0 01-5 0h-2-1-1-1v1h-1-1l-1 1h-2v1h-1l-2 1-2 1a26 26 0 00-2 1l-2 1-2 1h-1v1h-1-1v1h-2v1h-1-1v1h-1l-1 1h-2v1h-2v1h-1-1v1h-1-1s0 1 0 0v1h-2v1h-1c0-1 0-1 0 0h-1l-1 1-2 1h-1l-1 1h-1l-1 1h-1-1v1h-1-2v-1-1h1l1-1h2v-1h1l1-1c0 1 0 1 0 0h2l1-1h1l1-1 2-1h1v-1h2v-1h2v-1h2v-1h2v-1h1l2-1h1l1-1h1l1-1h1l1-1h1v-1h2l1-1h1v-1h2l2-1 2-1a33 33 0 004-2l1-1h1l1-1v-1h1v-1h1v-1l1-1 1-1 1-1v-1-1-1h1v-1-1-7-4-2-3l-1-4v-3-3-3-3a79 79 0 01-1-12V8l-2-4-2-2h-1V1h-2l-1-1h-4m3 10v4l1 3v19l1 3v5l-1 1 1 1v7h-1v2h-1l-1 2-1 1h-1l-1 1c0-1 0-1 0 0h-1-1v1h-1l-1 1h-2l-1 1h-1v1h-1-1v1h-1-1v1h-2v1h-1-1l-1 1-2 1-2 1h-1l-1 1h-1v1h-1-1v1h-2v1h-1-1v1h-2v1l-3 1a26 26 0 01-2 1h-1v1h-1-1l-1 1h-1l-1 1h-1-1v1h-1-1v1l-2 1-2 1a15 15 0 01-2 1h-2v1h-1-1l-1 1h-1v1h-1-1-1v-1c0 1 0 0 0 0l-1-1-1-1c1 0 1 0 0 0l-1-1v-1h-1l-1-2-1-1-1-1v-1l-1-1-1-1a248 248 0 00-8-11l-1-1-1-1v-1h-1v-1l-2-2v-1h-1v-1h-1v-1l-1-1v-2h1l1-1h1l1-1h1l2-1h1v-1c0 1 0 0 0 0h1l1-1h2v-1h2v-1h1l1-1h2l1-1 2-1h1l1-1h1v-1h2v-1h2l1-1h1v-1h1l2-1 1-1h2l1-1h1v-1h2l1-1h1l1-1h1v-1l1 1c-1 0 0 0 0 0v-1h1l2-1 2-1 1-1h2l1-1s0-1 0 0l1-1h1l1-1h2v-1h1l1-1h2v-1a12 12 0 014-2h2v-1h2l1-1h1v-1h2v-1h1l1-1h2v-1l3-1a21 21 0 013-1s0-1 0 0v-1h2v-1h4m-10 11h-1-1v1h-1l-1 1h-1l-1 1-1 1h-1v2l-1 1v1h1v2h1v1h2l1 1h1v-1h2v-1h2s0-1 0 0l1-1h1s0-1 0 0v-1l2-2h1v-1-2-1l-1-1-1-1c1 0 0 0 0 0h-1-1l-2-1v1m-18 9h-1l-1 1h-2v1h-1l-1 1h-1l-1 1-2 2v4l1 1 1 1h4l2-1 2-1 1-1h1l2-2v-1-1-1-1c-1 0-1 0 0 0l-1-1v-1h-1-1v-1h-1M82 40v1h-1l-1 1h-1l-5 3v5l1 1 1 1h4l1-1 2-1h1l4-4v-2-1l-1-1-1-1h-1v-1h-3m-46 1h1v1l3 2h-1l-1 1h-2a16 16 0 01-2 1l-1 1h-1l-1 1h-1l-1 1h-1v1h-1-1v1h-1-1v1h-1-1v1l-2 1-2 1h-2v1h-2l-1 1h-2l-1-1v-1l-1-1h1v-1l1-1 1-1h1l1-1h1l2-1 1-1h2v-1h1l1-1h2v-1h2v-1h2v-1h2l2-1 1-1h3m83 0v1h-2l-1 1h-1l-1 1h-1v1h-1v1h-1v4l2 2s0 1 0 0l1 1h3v-1h2l1-1h1l1-1h1v-1l2-1v-1-2-1-1l-2-1-1-1h-3m-57 9v1h-2c1 0 0 0 0 0l-1 1h-1l-1 1h-1l-1 1-1 2v4h1l2 1v1h3v-1c0 1 0 0 0 0h2v-1h2v-1h1l1-1h1l1-1v-1-1-1-1-1l-2-1-1-1h-3m39 1h-1-1l-1 1h-2v1h-1-1v1l-2 1v2l-1 1 1 1v1l1 1 1 1h5v-1h2l1-1h1v-1h1l2-3v-1-1-1h-1v-1l-1-1h-2l-1-1v1M80 61h-1-1v1h-2v1h-1-1v1h-1l-1 2h-1v3s1 0 0 0l1 1 2 2h1s1 0 0 0h3l1-1h1s0-1 0 0l1-1h1v-1h1l1-1 1-1c0 1 0 0 0 0l1-1v-1-1l-1-1-2-2h-3m62 20l-1 1h-2l-1 1h-1v1h-1v1h-1l-1 2v1h-1v2s-1 0 0 0l-1 1v2l1 2 7 7a13 13 0 002 2l2 1 3-1h2l1-1 1-1h1l1-1v-1h1v-1l1-1v-1-1h1v-1-5l-1-1v-1l-1-2h-1v-1s1 0 0 0l-1-1h-1v-1h-1l-1-1h-1-1v-1h-5m82 3l-2 1h-1-1-1-1v1h-1-1l-1 1h-1v1h-1a35 35 0 00-5 5v1h-1v1l-1 1v2l-1 1v4l-1 1v4a19 19 0 010 4l1 1v4s1 0 0 0v1h1v2h1v2h1v2h1v1l1 1 1 1h1l1 1v1h2v1h3v1h6a26 26 0 008-1h2v-1h2v-1l1-1v-1-1-1-1h-1v-1-1l-1-2-1-1v-1h-2l-1 1h-1-1l-1 1h-3l-1-1h-2l-1-1v-1h-1v-1h-1v-1-1h-1v-1-1-1a20 20 0 010-6v-1l1-1v-1-1h1v-1h1c-1 0 0 0 0 0v-1h2v-1h7v1h2l2-2v-1l1-1v-1h1v-1-1-1-1-1l-2-2h-1-1v-1h-2-1-1-2l-1-1h-1m38 0l-2 1h-2-2-1v1h-2l-1 1h-1l-1 1h-1l-2 2-1 1-1 2-1 1v1h-1v3h-1v3l-1 1v6a57 57 0 010 5v2h1v3h1v3h1v1l1 1v1l1 1 1 1c-1 0-1 0 0 0a38 38 0 004 3c0-1 0-1 0 0h1l1 1h2s0 1 0 0v1h7a24 24 0 005 0h1l1-1h2v-1h2v-1h1l1-1h1v-1c0 1 0 0 0 0h1l1-1 1-2v-1h1v-1l1-1v-1-1-1l1-1v-1-1-1-1l1-3v-4l-1-1v-2-1-1l-1-1v-1-1-1l-2-3-1-1a21 21 0 00-5-5h-1l-1-1h-2v-1h-3-2l-2-1m33 1h-3-1v1h-1c-1-1-1 0-1 6v15a96 96 0 01-1 15v8h2s0 1 0 0l1 1h6l1-1h2v-2l1-2v-3-5-4-4-3-4l1 1v2l1 1c-1 0 0 0 0 0v2l1 1v3h1v3h1v3h1v3s1 0 0 0l1 1v3h1v3h1v1h1a47 47 0 007 0l1-1v-1-1h1v-1c-1 0 0 0 0 0v-1-1-1l1-1v-1-1h1v-1-1-1l1-1c-1 0 0 0 0 0v-1-1-1l1-1v-1-1h1v-1-1-1h1v-1c-1 0 0 0 0 0v-1-1l1-1v2 15l1 3v7h1l1 1h7l1-1h2l1-6-1-3v-3-4-3-3-3l-1-9v-3-4-2l-2-1v-1h-2-4-3-4-1v1h-1-1v1h-1v3h-1v3h-1l1 1h-1v2l-1 1v3h-1v3l-1 1v2l-1 1v-1-1h-1 1l-1-1v-1-1h-1v-1-1h-1v-1-1-1h-1v-1-1-1h-1v-1-1l-1-1v-1-1l-1-1v-1-1h-1-1v-1h-2-4-4m-169 4h-1-1v1h-1l-2 1a14 14 0 01-2 1l-1 1h-2l-1 1h-1v1h-2v1h-1-1v1l-2 1h-2v1h-2l-2 1-1 1h-1v1c-1 0-1 0 0 0v1h1a35 35 0 015 5h1l1-1 1-1c-2 0-4-3-2-3l2-1 3-2a62 62 0 017-4 23 23 0 017-2l1-1v-1l-1-1v-1-1s0-1 0 0m18 1h1s2 1 1 2h1v2h-1l-1 1-1 1v-1h-1l-1-1-1-1v-1h1l1-2h1m119 7h1l1 1 1 1 1 1 1 1v2h1v10h-1v2l-1 1-3 2h-1l-1 1-2-1h-1l-1-1h-1l-1-2v-1h-1v-1-1-1l-1-3 1-3v-1-1-1h1v-1-1l1-1 2-2h4M91 107h-1-1-1l-1 1h-1l-1 1-2 2-1 1v1l-1 1v2 1l6 7a34 34 0 013 6h6v-1h1l1-1h1l1-1h1v-1l1-1v-1l1-1v-1-1l-5 4h-1a33 33 0 011-7l3-5c1-1 1-1-1-3a10 10 0 00-2-1v-1h-1v-1h-1-1-2-2m2 9h1v1h1l-1 3-2 1-2-1s-1 0 0 0l-1-1 2-3h2m17 2l-1 1c0 2 0 2 2 0 1-1 1-1-1-1m81 1h-2l-1 6 1 6h6a52 52 0 006 0v-12h-1-1-8m-76 4h-1l-1 1a9 9 0 00-3 1l-2 3v-1h-1v1h-1v1a18 18 0 01-6 5h-1-1v1h-1-2-1l-1 1h-1c-1-1-1-1-1 1v4l-1 3 1 1a20 20 0 005-1h4s0-1 0 0v-1h3v-1h1l1-1h1v-1h1l1-1h1v-1a16 16 0 013-2l1-1v-1l1-1v-1l1-1 1-1v-1-1h1c-1 0 0 0 0 0v-1-1-1l1-1-3-1" fill="#040404"/><path d="M130 0h2-2m-2 1h-1 1V0v1m6 0h1-1m-13 2v1l1-1h-1m18 1v0m-19 0c0 1 0 1 0 0 0 0 1 0 0 0m-2 1h0m-1 1h-1 1m-2 0v0m25 1l1 1V7h-1m-26 0l-1 1 1-1m-4 2h0m19 1h0m3 0v0m9 2v2l1-2c-1-2-1-2-1 0m-16 0c-1 0-1 0 0 0m-2 1h0m-20 0h-1 1c0-1 0-1 0 0m-2 0v0m21 0v1l1-1h-1m10 1v1l1-1h-1m-32 0h-1 1m20 0v1l1-1h-1m-22 1h0m35 1s0 1 0 0v-1 1m-16 0h0m25 3v0m-54 1h-1c0 1 0 1 0 0h1m20 0v0h0m25 1v-1 1m-47 0h0m36 0h-1 1m3 0h0m-18 0h-1 1m-23 1h0m21 0s-1 0 0 0m-22 0v1h-1 1v-1m20 1h0m-1 0v1h-1 1v-1m13 1v1l1-1h-1m27 1s0 1 0 0v-1 1m-64 0h0m64 1v0m-14 0v0m5 1v3-1-3 1m-6 1l-1 1 1-1m-56 0l-1 1 1-1m21 0l-1 1h1v-1m-23 1c0 1 0 1 0 0m21 0v0m52 1v-1 1m-75 0h1-1m21 0h0m26 1c1 0 1 0 0 0 0-1 0-1 0 0m-48 0h0m39 0h0m-18 0c-1 0-1 0 0 0m55 1v0c0-1 0-1 0 0m-57-1v0m-51 1h1c1 0 0 0 0 0h-1m73 0l1 1-1-1m-68 0c0 1 0 1 0 0-1 0-1 0 0 0m78 0v0h-1 1m2 0v1-1m-22 1h0m36 0v0m-52 1h-1 1m14 0v0m-52 1v-1 1m14 0v0m-12 2l2 1-3-3 1 2m10-1h0m21 0h0m-1 1h-1 1v-1 1m-21 0c0-1 0-1 0 0m-2 0v1l1-1h-1m55 1l-1 1 1-1 1-1-1 1m-56 0h-1v1l1-1m20 0v1l1-1h-1m72 1v0m-38 0h0m28 1l1 1v-1-1l-1 1m-39 0v0m9 0l-1 1h1v-1m17 1h1-1m-87 0v0m3 0h1v0h-1m44 0c0 1 0 0 0 0m21 0v0h0m18 0l-1 1h1v-1m3 0l1 1v-1h-1m-43 1h-1 1m-48 0v0m33 0h-1 1m32 0h1v1l1-1h-2m3 0c-1 0 0 1 0 0m25 1v-1 1m-47 0h0m66 1v0-1 1m-67 0h-1l-1 1 1-1 1-1v1m39-1l-1 1 1-1m-27 1c0-1 0-1 0 0m-50 0v0m21 0v1c1 0 1 0 0 0v-1h0m54 0l-1 1v0l1-1m-55 1c-1 0-1 0 0 0m-23 1h0m21 0h0m32 0v0m46 0v6s-1 0 0 0v-3-3m-60 0s-1 0 0 0m-40 0v1h-1 1v-1m20 1h1-1m-34 0v1l1-1h-1M2 48l1-1-1 1m17 0h-1 1m105 1s-1 0 0 0l1-1-1 1M17 49h0m68 0h0M1 49h0m27 0v1h-1 1v-1m-13 1h0m12 0h-1 1m36 0h1-1m11 0l1 1c1 0 0 0 0 0l-1-1m-27 0v0h0m15 0h-1 1m21 0l-1 1 1-1m-69 0v0m97 1v-1 1m10-1v0M1 51H0l1 1v-1m60 0h-1 1m6 0v1l-1-1h1m-22 0h0m36 0v0h0m23 0l1 1-1-1m8 0v0m7 0v1l1-1h-1m-96 1h0m75 0h-1 1m-21 0h1-1m-9 0v0m37 0v1h0v-1m-83 0v1h-1 1v-1m121 1c0-1 0-1 0 0M20 53v0m36 0l-1 1 1-1m-16 1h1c0 1 0 1 0 0h-1m-21 0h-1 1m74 0v0m-39 1c1 0 0 0 0 0m78 0v0h0M10 56l1 1-1-1m32 0s0 1 0 0c1 0 0 0 0 0m26 1c-1 0-1 0 0 0 0-1 0-1 0 0m-26 0h1v0h-1m88 0h0m-25 0v1c-1 1-1 1 0 0l1-1h-1m24 1h0m12 0h1-1m-97 0v0m-14 0v1h1v-1h-1m2 0l1 1-1-1m12 1l1 1-1-1m-15 0v0m112 0l-1 1 1-1M33 60h1v1h1-1l-1-1s0-1 0 0m92 0h-1 1c1 0 0 0 0 0m-98 0s0 1 0 0h1-1m65 0v1h1l-1-1m-37 0v1h1l-1-1m85 1c-1 0-1 0 0 0 0-1 0-1 0 0m-79 0h0m62 0h0m-98 0h0m58 0h1-1m39 0v1h-1 1v-1m17 1c-1 1-1 1 0 0v-1 1M24 62c-1 0-1 0 0 0m69 0h0c0-1 0 0 0 0m-36 0h1-1m19 0h0m-54 0v1l1-1h-1m74 0c1 0 0 0 0 0s-1 0 0 0M4 63v1h1a33 33 0 01-1-1m32 0v0m101 1h-1 1c0-1 0-1 0 0m-20 0h0m-44 0c-1 1-1 1 0 0m-36 0v0M6 65h0m130 0h-1 1c0-1 0-1 0 0m-1 0v0m-86 1h1v0h-1m63 0h0m21 0v0h0M11 66h1-1m60 0v0m-33 1h1-1m94 0c-1 0-1 0 0 0h0m-21 0h0m30 0h0m5 0h0s-1 0 0 0m-6 0h-1 1m8 0h1-1m-98 0l1 1v-1h-1m60 0l-1 1 1-1m20 0v1h1v-1h-1m7 0v0m-98 1c1 0 1 0 0 0 0-1 0-1 0 0m45 0v1l1-1h-1m67 0c1 0 1 0 0 0 0-1 0-1 0 0m-43 0v0m21 0v0m6 0h-1v1l1-1m-95 1c0-1 0-1 0 0m31 0h0m12 0c0 1 0 0 0 0h0m23 0h1-1m21 0v0h0m-86 0v0m11 1l1 1v-1h-1m79 0h0m25 0h0m-26 0v1h-1l1-1m-58 0l1 1c0 1 0 1 0 0l-1-1m8 1c1-1 1-1 0 0m78 0h1l1 1-1-1h-1c0-1 0-1 0 0m-79 0v0m49 0c0 1 0 0 0 0m-1 1h-1 1m-84 0v0m32 0c1 0 1 0 0 0s-1 0 0 0m1 0h1-1m84 0h1v1h1l-2-1M55 73v0c-1-1-1 0 0 0m65 0h-1 1m5 0c1-1 1-1 0 0m-82 0h1v0h-1m119 1c1 0 0 0 0 0M56 74v0s-1 0 0 0m40 0l-1 1h1v-1m26 0v0m-78 1h1v-1l-1 1m119 0v-1 1m-69 0c1 0 1 0 0 0m26 0h0m-64 0h1c0 1 0 1 0 0h-1m59 0c0 1 0 0 0 0h0m-70 1c1 0 1 0 0 0 0-1 0-1 0 0m48 0c0-1 0-1 0 0m20 0h0m28 0h0m23 0l1 1-1-1m-73 0v1l1-1h-1m-45 1c0-1 0-1 0 0m11-1l2 2-1-1v-1h-1m55 1h-1 1c0-1 0-1 0 0m4 0h0m-26 0h-1l1 1v-1m20 0v0m55 1h1v-1h-1v1m-50 0h-1 1m20 0v0h0m31 0v0M59 79c1 0 1 0 0 0 0 0 0-1 0 0m54 0h0m21 0h-1 1m-22 0l-1 1h1v-1m20 1h1v-1l-1 1m22-1l1 1v-1h-1M49 80v0h-1 1m61 0h-1 1m21 0l-1 1 1-1m12 1h1-1m-94 0l1 1v-1h-1m80 0h-1l1 1v-1m-67 1v0c-1 0-1 0 0 0m19 0h-1 1m59 0c-1 0-1 0 0 0h0m17 0l1 1-1-1M50 82l1 1-1-1m29 0v0m26 1l1-1-1 1m21 0v-1 1m24 0c0-1 0-1 0 0m-51 0h0m-37 0l1 1v-1h-1m75 0l-1 1s0 1 0 0a1495 1495 0 001-1m-60 0v0m21 0v0h0m-47 0v0m73 0v1h1v-1h-1m27 0l1 1-1-1m7 0v1h1l-1-1m-82 1h-1 1m21 0c-1 0-1 0 0 0 0 1 0 0 0 0m-34 0l1 1v-1h-1m160 0l1 1v-1h-1m2 0v1l1-1h-1m35 0l1 1 1-1h-1-1m2 0l1 1 1-1h-2M52 85h0c0-1 0-1 0 0m22 0h0m146 0h0m37 0h0m9 0h1-1M95 85h0m135 0c1 0 1 0 0 0m26 0h1-1m11 0h1-1m27 0h-1 1m5 0h2-1-1m27 0h-1 3-2m5 0h2c1 0 0 0 0 0h-2M99 85v1l1-1h-1m36 0l-1 1 1-1m82 0v1l1-1h-1m15 0v0m22 0v1l1-1h-1m15 0v1h1l-1-1m21 0v1l1-1h-1m15 0v0m17 0v1l1-1h-1m15 0v1c1 0 1 0 0 0v-1M64 85l1 1-1-1m56 1h-1 1v-1 1m33 0h1-1m185 0h1-1c0-1 0-1 0 0m-49 0v0M98 86h-1 1m21 0l-1 1h1v-1m97 0h-1 1m18 0c1 1 1 1 0 0m18 0h1-1m19 0l1 1v-1h-1M65 86v0m89 0v0m185 1v-1 1m-125 0h1-1m58 0h0m-58 0c0 1 0 1 0 0M66 88s0-1 0 0m184 0h-1 1M94 88h1-1m21 0h0m98 0c-1 0-1 0 0 0M55 88v0m12 0v0m182 1h-1-1l1 1 1-1M55 89l1 1v-1h-1m33 0v0m37 0v0m36 0c0 1 0 1 0 0 0 0-1 0 0 0m9 0v0m41 0l-1 2a26 26 0 002-2h-1m128 1v0-1 1m-216 0h0m113 0v0M56 90l1 1v-1h-1m70 1h1-1m18-1s0 1 0 0m17 0v0m-5 1s0 1 0 0 0-1 0 0m-35 0h0m125 0c1 0 1 0 0 0m-114 0h0m-75 0l1 2v-1l-1-1m85 0v0m-34 1h-1 1v-1 1m12-1v0m26 1h1c0 1 0 1 0 0h-1m63 0l-1 1h1v-1m-91 0h1-1m23 1v1l1-1-1-1v1m138-1v0m30 1v0m-64 0h-1 1m-10 0v1l1-1h-1m-108 0l-1 1h-1 1l1-1m81 1h-1 1m-105 0h0m20 0h2-1-1m157 0v0m9 1v-1 1m-187-1l-1 1h1v-1m18 1l-1 1a43 43 0 011-1m12 0l2 1 2 1 1 1-4-3-1-1v1m102 0v1l1-1h-1m9 0h1v-1l-1 1M80 95l1 1v-1h-1m64 1h1l-1-1v1m-83 0v0m56 1a24 24 0 00-2 1 168 168 0 002-1m53-1v0m-9 0v1c-1 0-1 0 0 0v-1m-88 1c0-1 0-1 0 0m36 0h0m124 0v0h0m-7 0h0M61 97l1 1v-1h-1m94 0v0m69 0h0m36 0h2-2m79 1v0-1 1m-231-1l-1 1h1v-1m122 1h1l-1-1v1m29 0c-1 0-1 0 0 0 0-1 0-1 0 0m-89 0c0 1 0 0 0 0M62 98l1 1v-1h-1m21 0h1v0h-1m23 0v0m136 0v0m16 0l-1 1h1v-1m7 0l1 1v-1h-1M74 99h1l-1-1v1m146 0h0m-82 0l2 2 1 2-3-4m-33 0h-1 1m184 1v0c0-1 0-1 0 0m-84-1v0m62 1c0-1 0-1 0 0m-164 0h-1 1m50 0v1l1-1h-1m103 0v0m-181 0l1 1c0 1 0 1 0 0v-1h-1m27 0l-1 1 1-1m57 1v-1 1m108 0h0m-203 0l1 1v-1h-1m218 0v0m30 0v0m-71 1v0m-132 0l-2 1h-1l1 2c1 0 0 0 0 0l-1-2h1l2-1m-32 0v0m74 0v1h-1l1-1m54 1l-1 1h1v-1m-104 0l2 2-1-1-1-1m181 0v1h1l-1-1m19 0v1h1l-1-1m-223 0v0m63 1h1c0 1 0 0 0 0h-1c0-1 0-1 0 0m185 0h0m-177 0c-1 0-1 0 0 0m8 0c-1 1 0 1 0 0h1-1m61 0v0h0m83 1v0c0-1 0-1 0 0m39 0v-1 1m-172 0h-1 1v-1 1m-25 0h1-1m172 0s0-1 0 0m-248 0l1 1v-1h-1m174 0v0m61 0v0m-84 0v0m36 1h1v-1l-1 1m-146-1v2a15 15 0 00-2 1l1-1 2-1c1 0 1 0 0 0l-1-1m59 1c0-1 0-1 0 0m-87 0v0c0-1 0-1 0 0m75 0l-1 1 1-1s1 0 0 0m-87 0v1l1-1h-1m201 0v3c0 1 0 1 0 0v-3m-165 1h1v1c1 0 0 0 0 0v-1h-1m-14 0h1-1m3 0h0m234 0v0m-162 1h0m175 1v0-1 1m-189-1h0m-66 1h-1 2-1m203 0l1 2v-1l-1-1m-210 0l-1 1 1-1m87 0l-1 1v1-1l1-1m76 1v-1 1m-141 0l1 1v-1h-1c0-1 0 0 0 0m45 0h0m-68 1v-1 1m224 0v-1 1m-83 0v1c1 0 0 0 0 0v-1m-74 3v-2 2m-62-2c1-1 1-1 0 0m20 0h-1l-3 7 3-6 1-1m180 0v0m-78 0v1h1c0 1 0 1 0 0l-1-1m100 0v0m-142 1h-1l1-1v1m165-1v0m-86 1v0m27 0v0m-202 1v-1 1m5-1h0s-1 0 0 0m-4 1h3-3m7 0h0c-1 0-1 0 0 0m86 0h-1 1m122 0v0m-123 0v1h-1l1-1m109 1h-1 1m37 0c0 1 0 1 0 0m-85 1l1 1h1l-1-1h-1m-129 0h0m176 0v0m73 1v-1 1m-259 0l1 1-1-1c0-1 0 0 0 0m13-1v0m61 0v1h1l-1-1m-11 1l-1 1v0l1-1m88 0h0m34 0c-1 1-1 1 0 0 1 0 1 0 0 0m-177 1v0h0m169-1l1 1h-1v-1c-1 0 0 0 0 0m30 1v-1 1m39 0v0m-245 0l1 1 4 5v1l-2-4-3-3m28 0c-1 1-1 1 0 0 2 0 2 0 1 1l-2 1h1a416 416 0 010-2m191 0v5-2-2-1m-76 1h3l-2-1-1 1m35 0h1v-1l-1 1m3 0c-1 0-1 0 0 0 0-1 0-1 0 0m-73 0h1-1m9 0h1-1m-51 0h1-1m179 0v0m-237 1c0 1 0 1 0 0s0-1 0 0m7 0v1-1c1 0 1-1 0 0m138 0h1-1m-144 1h-1 1m2 0h0m114 0c0-1 0-1 0 0m114 0v0m-219 0v1l1-1h-1m-5 1v-1 1m3 1l-1 1v-1l2-1h1l-2 1m188 0v0-1 1m19-1c0 1 0 1 0 0m20 1l1 1v-1h-1m13 0l1 1v-1h-1m-20 0v1l1-1h-1m-205 0h3c0 1 0 1 0 0h-3m-18 1c-1 2 0 2 1 1h-1v-1c0-1 0-1 0 0m16 0h-1l2-1-1 1m165 0v0c0 1 0 0 0 0l1-1-1 1m-167 0l-3 3v1l-1-1 1 1c0 1 0 1 0 0l2-3h1v-1h0m126 0v0m-28 1c1 0 1 0 0 0 0-1 0-1 0 0m37 0h1v1h1l1 1v0a38 38 0 01-3-2m-129 0h0m203 1c0-1 0-1 0 0m-19 0v0m40 2l-1 2h1v-1s0-1 0 0v-3 2m-234-1h0m168 0l1-1-1 1m-63 0l1 1 1 1-1-1h-1v-1m63 0l-1 1 1-1m-39 1v1l1-1v-1l-1 1m-130 0v1h-1c0 1 0 1 0 0h1v-1m144 0v0m78 1v-1 1m-230 0c1-1 1-1 0 0m-9 0v-1 1m125 0h1v1l-1-1m37 0h1-1m-135 1s-1 0 0 0v-1 1m172-1v1h0v-1m-72 1h0m-122 0h0m160 0c-1 0-1 0 0 0m64 0c1 0 1 0 0 0m-28 0l1 1-1-1m7 0v1l1-1h-1m15 0v1h2c3 0 2 0-1-1h-1m18 0v0c-1 0-1 0 0 0m7 0v1h1v-1h-1m-118 1c-1 0-1 0 0 0m11 0c1 0 1 0 0 0m26 0h0m11 0c1 0 1 0 0 0m26 0h1-1m-190 1l1-1-1 1m88-1l2 1h4l1-1h-7m32 0l1 1h1l1-1h-3m37 0l1 1h1l1-1h-3m-146 1v1l1-1h-1m-13 1h1-1m12 1h1v-1l-1 1m-1 1v1l1-1h-1m-20 1c1 0 0 0 0 0m-1 2v1a19 19 0 000-1m19 0s-1 0 0 0l1-1-1 1m-1 1h-1 1c0-1 0-1 0 0m-18 3v-1 1m-1 2v1h1l-1-1 1-1-1 1m7 0h0m-6 1h0" fill="#524746"/><path d="M132 0c1 0 0 0 0 0m-4 0h0m6 0v0m6 6V5v1m1 3h1l-1-1v1m1 3v-1 1m-39 0v1l1-1h-1m29 3v0m10 2v0m-19 4h1l-1-1v1m10 1v-1 1m9 2v0m-41 0c1 0 1 0 0 0m14 0l-1 1 1-1m18 0c0 1 0 1 0 0m-5 3v-1 1m-15 1h0m20 0v0-1 1m-62 0h0m71 2v2-1-1m-39 0l1 1v-1h-1m-16 1l1-1-1 1m-53 0h1-1m3 1h0m47 0h0m49 3v-1 1m-76 0h0m86 3v-1 1m-50 0v-1 1m13 1h1v-1l-1 1m-24 1h0m2 0h0m49 2l1 1-1-2v1m-14-1h0m2 0h1-1m-34 1l-1-1 1 1m37 0h-1 1m-94 0v1l1-1h-1m69 0v0m44 1v0M39 43v1c1 0 1 0 0 0v-1m18 2v1l1-1h-1M3 46c0 1 0 1 0 0 1 0 1 0 0 0m-1 1v0c1 0 1 0 0 0m71 1h1v-1l-1 1m61-1v2c0 1 0 1 0 0v-2m-47 1l-1 1 2-2-1 1m37 1h-1 1v-1 1m19 1s0 1 0 0v-1 1m-79 0h0m36 1h1l-1-1v1m2 0h1v-1l-1 1m32 0v0c0-1 0 0 0 0m-67 0v0c-1 0-1 0 0 0m8 0l1 1-1-1m37 0v1c1 0 1 0 0 0v-1m2 2h0m-46 0v0m65 0v0m-93 1h0M9 54h1-1m134 0v0M9 55h1-1m97 0c0-1 0-1 0 0m-65 0h0m90 1v1l1-1h-1M10 56h0M0 56v0m91 0l1 1v-1h-1m-38 1l1 1v-2l-1 1m53 0v-1 1m-39 1l1-1-1 1m38 0l-1 1h1v-1m23 0h0m-99 1h0m4 1v-1 1m47 0l1 1 1-1h-1-1m-34 1h-1 1m38 1h1l-1-1v1m-38 0h1-1m12 0h-1 1m39 0h1-1m-2 1l2-1h-1l-1 1m-23 1v1l1-1h-1m-35 1v0M9 66h0m29 0v0m-27 0h0m130 1h0m5 0h1-1m-7 0h0m9 0h0m2 0c1 0 1 0 0 0M39 67v0m1 1v0m12 0v0m80 1l-1 1 1-1m-59 3v-1 1m4 0c0 1 0 1 0 0-1 0-1 0 0 0m-22 1c0 1 0 0 0 0m43 0h-1 1m64 0l2 2-1-1-1-1M44 74v0m13 1v0m86 1h1-1m-3 0v0m8 0v0m-38 2l1-1-1 1m56-1v0m-11 3c0-1-1-1 0 0M48 80h1-1m12 0c1 0 1 0 0 0m1 1s0 1 0 0c1 0 0 0 0 0m21 0l-1 1 1-1m60 0h0m3 0h0m2 0c0 1 0 1 0 0 1 0 1 0 0 0m-85 1v0m76 0c0 1 0 1 0 0h0m11 0h1-1m-98 1v0m51 1v0m67 0v0m53 0v1l1-1h-1m4 0l1 1v-1h-1m33 0l1 1v-1h-1m5 0v1l1-1h-1m-34 1h0m63 0h0m7 0h1-1m25 0h1-1m7 0h1-1m-232 0c-1 0-1 0 0 0m131 0h1-1m60 0h0m12 0h0m20 0h0m12 0h0M53 86l-1-1 1 1m41 0h-1 1m227 0c-1 0-1 0 0 0m-49 1h1l-1-1v1M53 87h0m12 0h0m105 1v-1 1M66 88l1 1v-1h-1m241 0h1-1M88 88v0m124 1c-1 0-1 0 0 0 0-1 0-1 0 0m-42 0s0-1 0 0m106 0a12 12 0 002 2l-1-1-1-1m-115 0v0m-28 0v0m186 1h1v-1l-1 1m20 0v0M89 90v0m147 1h1l-1-1v1m-104 0h0m77 0h0m-67 0v0m104 0l-1 1 1-1m-76 2l1 2v-2-2l-1 2m119 0v-2 2m-143-1v2l1-1v-1h-1m10 1v-1 1m-98 0v-1 1m1 0v0m21 1v0m81 1v-1 1m157 1v-1 1m21 0v0m-184 0l1 1v-1h-1m6 1v-1 1m72 0v1l1-1h-1m-125 0c0 1 0 1 0 0h0m173 1h1l-1-1v1m-121 0v0m10 0v0m147 0v0m-75 0v0m-11 1h1v-1l-1 1M63 99v0m142 0c0 1 0 0 0 0m84 1v-1 1m-202 0v-1 1m4 0h1l-1-1v1m68 0h0m-95 0v0m177 1h1v-1l-1 1m-176 1v-1 1m12-1v0m22 1h1l-1-1v1m106 0v-1 1m135 1v-1 1m-58 0h1l-1-1v1m-205 0h1-1m127 0v1l1-1h-1m64 0h0m-111 0v0m84 1v0m60 0l1 3v-1-1-1h-1m25 0c1 1 1 0 0 0m-71 0v0m-108 1v-1 1m122 0v-1 1m-127 0h0m3 0h0m59 3v-3 3m-101-3l2 2-2-2m180 0v3a35 35 0 000-3m32 0v0m-160 1h-1 1c1-1 1-1 0 0m63 0v0m36 0v2l1-1c0-1 0-2-1-1m60 0h0m-225 1h0m199 0v1c0 1 0 2 1 1 0-1 0-3-1-2m-209 0c1 0 1 0 0 0m10 0c-1 0-1 0 0 0m6 0h0m174 0v0m34 0v0m-85 2v-1 1m85-1s0 1 0 0m37 0v0m-86 1l1 1v-1h-1m73 0v-1 1m-249 0v-1 1m21 0l1 1h0v-1h-1m66 0v0m-21 1v0h0m-43 0v0m168 1v-1 1m-28 0v0m-78 1h-1 1v-1 1m-97 0h0m235 0v0m-33 0h0m-50 0v1l1-1h-1m64 1v0m-78 0v0m-138 1v-1 1m94 0h1v-1l-1 1m81 0v-1 1m63 0h1v-1l-1 1m23-1v0m13 2v-1 1m-35-1v0m-17 1v0m-47 0h1-1m82 0c0 1 0 1 0 0m-67 1h0m-14 0v0m40 0v0m40 1h1-1m-232 0c0 1 0 1 0 0m-1 2h1v-1l-1 1m137-1h0s-1 0 0 0m-76 1h0m50 0h1v0h-1m127 0v0m-181 0h1-1m155 2c0 2 0 2 0 0v-2 2m-192 0v-1 1m97 0h1l-1-1v1m134 1l1 1v-1-1l-1 1m-249-1h0m216 1v-1 1m-19 1v-1 1m33-1v0m-84 1v0m90 2h1v-1l-1 1m-49-1c0 1 0 1 0 0h1-1m-69 0c0 1 0 1 0 0-1 0-1 0 0 0m99 0v0m-62 0v0m-129 2h0m131 1h1c0 1 0 1 0 0h-1c0-1 0-1 0 0m93 1v-1 1m-66-1c1 0 0 0 0 0m-63 0v0m89 1v-1 1m27 1v0m-233 1s-1 0 0 0m233 0c1 1 1 1 0 0m-238 0h0m179 0v1l1-1h-1m70 0l1 1v-1h-1m-71 1h0m22 0h0m7 0h0m14 0h1-1m5 0h0m13 0h1-1m-226 0v0c1 0 1-1 0 0m189 0h2c1 0 1 0 0 0h-2m40 0h1c2 0 2 0 0 0h-1m-112 0h0m8 0h1-1m29 0h1-1m-67 1h3l-2-1-1 1m7 0h2l-1-1-1 1m25-1l1 1h1l-2-1m3 1h2l-1-1-1 1m34 0h2l-1-1-1 1m3 0h2l-1-1-1 1m-168 3l1 1v-1h-1m16 2v1l1-1h-1m-12 7v0m-2 1h1l-1-1v1m-6 0h1-1m3 0h1-1" fill="#656565"/></g></svg>