<svg xmlns="http://www.w3.org/2000/svg" width="400" height="82.1"><defs/><g fill-rule="evenodd"><path d="M69 10h1-1m100 12l-1 1h-2v1h-1l-2 1-1 1-2 2-1 1v1h-1v2h-1v3h-1v11a16 16 0 001 4v2h1v1l1 1v1a16 16 0 007 5h1l2 1a36 36 0 008-1 12 12 0 004-1l1-1 1-1-1-3-2-5h-2-1l-1 1h-4l-1-1-2-2h-1v-1l-1-1v-7l1-1v-1l4-3h4l1 1c1 0 3 0 3-2l1-2 1-1v-1-1-1l-2-2-3-1h-1l-7-1m20 1h-3v36l4 1h7v-7l1-6 1 2a53 53 0 003 6v1h1v2l3 2 1 1h2l1-1h2v-1h1l2-2h1v-2-1l-1-2h-1l-1-1v-1l-1-1v-1h-1v-1l-1-1-1-1v-1h-1v-1l-1-1v-2-1l1-1v-1h1v-1-1h1v-1-1l2-2v-1l1-1v-1h1a336 336 0 010-5h-6l-5 1v1l-1 2-1 1v1h-1v2l-1 1v1l-1 1v1c-1 1-1 0-1-5 0-7 1-7-1-7h-1-6m-84 0l-1 19v18c1 1 10 1 10-1v-4l1-5h3l1-1h3v-1l2-1h1v-1l1-1 2-1v-1l1-2v-1l1-1v-2-3-2l-1-1v-1-1h-1l-1-2-1-1-1-1h-1v-1h-2-1v-1h-16m28 0v9h5v19h-2l-3 1v8h20v-1-3c1-5 0-5-3-5h-1V32h4v-8l-1-1h-19m85 0l-1 1v7c0 2 0 2 4 2h4v27h9c2 0 2 1 2-14V33h2l4-1 1-1v-1l-1-7h-24m28 0v36l10 1a73 73 0 0011-1h2v-1h1l2-3 1-1v-1-5-1-1l-1-1v-1l-4-3v-1l2-1v-1h1v-1-1l1-5v-1l-1-1v-1-1h-1a7 7 0 00-2-2h-1v-1h-1-1v-1h-19m13 9c1 0 2 1 2 3s-1 3-3 3h-1v-6h2m-142 1l2 1v4l-1 1-1 1h-1-1v-7h2m234 5c0 1 0 1 0 0v-1 1m-34 2v-1 1M76 40h0m311 4v0m-36 1v1h1l-1-1m-92 0l1 1c2 0 1 5-1 5h-2v-6h2m97 3v-1 1m31 2v-1 1M67 50h1v-1l-1 1m1 0h1c1 0 1 0 0 0h-1m209 0h4-4M66 51c-2 1-5 3-8 7v1h5v2l-1 1h5c4 1 7-1 7-4v-2l-1-1v-1c-2-3-5-4-7-3m332 1v-1 1m0 5v-1 1M74 57h1-1m-19 0l-2 1v-1 1h2v-1c1-1 0 0 0 0m-21 3h0m-1 0v0h1-1m8 0h1l1 1h-1v-1h-1m-9 0l-1 1v0h2l-1-1m5 2c-3 1-6 2-10 7v1c1-1 4 0 6 1h1l-1 1-1 2h1l4 1c6 2 10 0 10-5v-2 0l-2-3c-2-3-5-4-8-3m-7 0h-1 1m27 1h1l-1-1v1m-1-1l1 1v-1h-1m0 1h-1 1m-28 0l-2 1h-1 2l1-1m46 0v1c-1 0-1 1 0 0v-1h0m-17 1v0c0-1 0-1 0 0m15 0l-1 1h-1v1l1-1h1l-1 1h1v-1l1-1h-1m-10 1h1l2 1h0v-1h-3m-6 0v0m-31 1h1-1m44 0h0m-43 0h0m41 0h1c1 0 0 0 0 0h-1m-42 0v1h-1l-2 2 1-1h1l1-1h1v-1h-1m-4 3v1l-1 1v1h-1v1l-1 1v1s1 0 0 0l1-1v-1-1h1l2-3h-1m26 1h1v-1l-1 1m1 1h0m-21 3h1-1m-3 0v1l1-1h-1m3 0v0m-5 1h0m3 1v1h-1v1h1v-1-1h1v-1l-1 1m-7-1v0m3 1c-1 0-1 0 0 0l1-1-1 1m26 0l-1 2-1 1 2-2v-1m-29 1v-1 1m2-1h-1v1l1-1m9 1v1l1-1h-1m-1 0l-1 1s-1 0 0 0h1v-1m2 1h1v-1l-1 1m14 0l-1 1h-1 1l1-1-1 1v1l1-1v-1h0m-12 0h0m-7 1v0h-1v1h1l1-1v-1l-1 1m8-1l1 1h1l-2-1m11 2h-1 1l1-1-1 1m-8 0c1 0 1 0 0 0 0-1 0-1 0 0m4 0h0m3 0v0m-6 0h0" fill="#fb9549"/><path d="M68 1l-1 1h-1-1v1h-2v1h-1l-1 1h-1-1a28 28 0 01-4 2v1h-1-1l-1 1h-1l-1 1h-1l-2 1-3 2-2 1h-1l-1 1h-1l-1 1h-1l-1 1-2 1-3 1h-1v1h-1-1v1h-1l-2-1a11 11 0 00-2-2h-1-1l-1-1c0 1 0 0 0 0h-1-1v1h-1-1l-1 1h-1-1v1h-1l-1 1h-1-1v1H8 7v1H5v1H4l-2 3v1 4l1 1 3 2h4a18 18 0 014-2l3-2h1l1 2h1v1l1 1c-1 0-1 0 0 0l1 1 1 1v1l1 1 1 1 1 2 1 1 1 1v1h1v1h1v1l1 1 1 1v1s0 1 0 0l1 1 1 1v1h1v1h1v5h1l2 1 1-1 1-2h1v-1-1-1h-1v-1h-1v-1l-1-2 3-1 3 2 1 1h4v-1a10 10 0 013-1l1-1a411 411 0 0022-9h2l1 1 4 3 1 1v7l-1 1v1l-2 2-3 1h-1l-1 1h-1v4h5v-1h2l1-1s1 0 0 0l2-1 1-1a23 23 0 011-3l1-1 1-1v-1-3-3-1l-1-1v-1l-1-1-1-1a17 17 0 00-6-5h-1-1v-1h-1-3s0 1 0 0l-1 1h-2-1v1h-1l-2 1-3 1v1h-1l-2 1h-1a131 131 0 01-13 6l1-1h1v-1h1l1-1h1l2-1 3-1 2-1v-1h2v-1h1c-1 0 0 0 0 0h1a9 9 0 002-2c1 0 7-3 8-5l1-1 1-1c0 1 0 0 0 0h-1l1-1v-1-1-1-3-3a63 63 0 01-1-10V7 5 4l-1-1-1-1h-1l-1-1h-2m1 5s1 0 0 0v1a66 66 0 011 11v11l-1 1-1 1h-1v1h-2v1l-2 1-3 1h-1l-2 1h-1a61 61 0 01-8 4l-1 1h-1v1h-1-1v1h-1-1v1h-1l-2 1-2 1h-1v1l-1-1a34 34 0 00-3-4 80 80 0 00-4-5l-1-2-1-2h-1l-1-1v-1l-1-1-1-1 1-1 1-1h2l2-2a29 29 0 014-1l1-1h1l1-1c0 1 0 1 0 0a74 74 0 0113-6h1v-1h2v-1h1l2-1a12 12 0 013-1l1-1h1l1-1 1-1h1a32 32 0 016-3h1m-4 6h-1l-4 2v3h1v1h2l3-2 1-1v-1l-1-2-1-1v1m-11 5h-1l-1 1c-2 1-2 1-2 3l1 2h2l1-1c3-1 3-2 3-3l-1-2h-2m-10 5h-1l-1 1h-1l-1 1s0-1 0 0l-1 2s1 0 0 0l1 1c0 1 0 1 0 0l1 1h1l2-1h1v-1h1l1-1-1-2-2-1m-24 0v1h1v1h-1v1h-1-1l-1 1h-1v1h-1-1v1h-2v1h-1l-1 1H7v-2l1-1h1l1-1h1l1-1h1l1-1h1l2-1 1-1h2m43 0l-1 1h-2v1h-1v1l-1 1 1 1 1 1h2l1-1h1l1-1h1v-3l-1-1h-1-1m239 1h-2-1l-1 1-1 1a19 19 0 00-6 4v1l-1 1v2l-1 1v2l-1 1v5a30 30 0 000 5l1 1v2l1 1v2l1 1a20 20 0 005 4v1h1l2 1h3l2 1 3-1h4l1-1h1l1-4v-1-1l-1-2-1-2h-2-1v1h-1-1-1-2c-2 0-4-3-4-4v-1l-1-1v-5l1-1v-1l2-3c0 1 0 0 0 0h1c-1-1 1-1 3-1l4 1 2-2a42 42 0 012-3v-1c1-1-1-4-2-4h-1v-1h-1-1-7m30 0h-3l-1 1h-1-1v1h-1v1h-1l-2 1-1 2-2 3v2a32 32 0 00-1 14l1 1v3l1 1 1 1 1 1 2 2 1 1h1l2 1v1h4l2 1 3-1h4v-1h2v-1h1l4-3v-1l1-1v-1h1v-1-1-1l1-1v-1-1-1-1l1-2-1-3v-1-1-1-1l-1-1v-1-1l-1-1v-1-1a23 23 0 00-4-3v-1h-1-1l-1-1h-1l-3-1h-6m27 0h-1l-1 2v2l-1 4a168 168 0 010 18 260 260 0 011 11h7l1-1h1v-3a85 85 0 010-11v-3-3c1-1 1 0 1 1v2h1v2h1v4h1v3h1v3l1 3 1 1v2h7v-1l1-1v-1-1l1-1c-1 0-1 0 0 0v-1-1-1h1v-1-1-1-1h1v-1-1-1l1-1v-1-1l1-1v-1-1c1-1 1 0 1 1v13l1 7h9l1-3a60 60 0 010-6v-4a192 192 0 00-1-21v-2h-1l-1-1h-5a140 140 0 01-7 1h-1v1l-1 1c1 0 0 0 0 0v1l-1 2v3h-1v3h-1v3l-1 1v2-1h-1v-1-1-1h-1v-1-1l-1-1v-1-1l-1-1v-1-1h-1v-1-1l-1-1v-1-1l-3-1h-1-8M33 27h-1v1h-1l-2 2v1l1 1v1h3l1-1h1v-1h1v-1h1v-1l-1-1v-1h-1-1-1m20 0l-2 1h-1l-1 1v1h-1v1l1 1 3 1h1v-1h1l1-1 1-1-1-3h-2m-11 5l-4 3v1l2 2h1l4-2v-1-1-1h-1v-1h-1-1m294 1h1v1l2 2 1 1v1a23 23 0 010 7v2h-1l-2 2-1 1h-2-1-1l-1-2-2-2v-1-1-1-1-2-1-1-1l2-2 1-1v-1h4M75 43h-1l-1 1-3 2v2l-1 1h1v1l1 1 1 2 2 1v1h3l1-1h1l2-2v-1l1-1v-1c0 1 0 0 0 0v-1l-1-1v-1l-3-3h-3m-9 4a15 15 0 01-3 1l-1 1h-1l-1 1h-1-1v1h-1-1v1h-1l-1 1h-1v1l2 2h2v-1c-2 0-2-1-1-1l4-2 5-2 2-1-1-1v-1m10 1h1v2h-1-1v-2h1m201 2l-1 1h-1l1 4v5l4 1a19 19 0 014 0l1-1v-5-5h-8M47 56h-1l-1 2-2 2v2l3 4 1 2h4v-1l3-2 1-1c-1-1-2 0-3 1h-1l2-6v-1-1h-1l-1-1h-1-3m3 5v2h-2c-1-1 0-3 2-2m8 1c0 1 0 1 0 0h1-1m1 3l-2 2-1-1v1l-4 3h-1l-1 1h-2v4h6v-1h2l1-1a17 17 0 004-6v-1h1v-1h-3" fill="#040404"/><path d="M66 49l-7 3c-1 2-2 2-3 2l1 1v1l-2 1-1 1c-1 1-3 4-3 7h1l2-2h2v-1h3l-1 1-1 1v1 1c0 1 0 1 0 0l5-2 1 1h2v1s1 0 0 0h5v-1h2l1-1-1 1v1l1-2h1v-1-6-1 2c0 3-3 5-7 4h-4-1l1-1v-1-1h-5v-1c5-8 11-9 15-4v1a13 13 0 00-4-5h-2v-1h-1M37 60h-2-2s0 1 0 0v1h-1-1v1h-1l-1 1h-1l-1 1h-1-1v1l1 1h0v1h-1l-1 1h-1l-1 1-1 1v1h-1l-1 1v2l-1 1c1 0 0 0 0 0v2h1l1-1 1-1h3l1-1h3-1v1l-2 1v2h-1v1h1v1l1-2h1l1-1h2l1 1h2l1 1h1l1 1h5l1-1h1s1-2 2-1h-1v1a409 409 0 014-5 16 16 0 00-1-4v-1-1 2c0 5-4 7-10 5l-4-1h-1l1-2 1-1h-1c-2-1-5-2-6-1l2-3c6-6 12-7 15-4l3 5-4-6-2-2c0 1 0 0 0 0h-4" fill="#f2433b"/><path d="M72 2l1 1-1-1M59 5h0m-1 0v1h1l-1-1m11 2l1 1V7h-1m-3 0h0m8 2V8v1m-26 2h-1 1m-3 1h0m18 0h0m7 1v0c0-1 0-1 0 0m4 0v1h1c-1-2-1-3-1-1m-13 0c1 0 0 0 0 0m6 1v1l1-1h-1m-19 2h0m12 1h1l-1-1v1m5-1v1l1-1h-1m-29 1h-1 1m18 0h1-1m10 0h0m-8 1h1l-1-1v1m-38-1l1 1v-1h-1m15 1c1 0 1 0 0 0m18 0h0m-8 0h0m27 0v0m-13 1v0c0-1 0-1 0 0m-15 0h0m8 0c0 1 0 1 0 0m-25 1l1 1c1 0 1 0 0 0l-2-2 1 1m50 0v-1 1m-35 0s-1 0 0 0m-1 0v0m17 1c-1 0-1 0 0 0l1-1-1 1m-11 1h1-1m30 2v0c0-2 0-2 0 0m-54-1c1 1 1 1 0 0 0 0 0-1 0 0m44 0h1v1l-1-1m237 0c1 0 1 0 0 0m4 0h1-1m26 0h0m5 0h0s-1 0 0 0M46 23h0m254 0h0m9 0h1-1s-1 0 0 0m21 0h-1 2-1m9 0h1-1s-1 0 0 0m23 0h-4 1a56 56 0 013 0m25 0h0m-20 0h0m17 0h1-1m-15 0c0 1 0 1 0 0m26 0c0 1 0 1 0 0 1 0 0 0 0 0M40 24s-1 0 0 0c1-1 1-1 0 0m30 0v0m300 0h0m-57 0v1l-1-1h1m29 0h1-1M13 24v1h1v-1h-1m343 2l1 1v-1-2l-1 2M3 25c-1 1 0 1 0 0 0 0 1 0 0 0m340 0h1a29 29 0 01-1 0M12 25h0m17 0s0 1 0 0h0m296 0l-1 1 1-1M58 26v-1 1m237-1l-1 1v1l1-2m51 1c0 1 1 1 0 0h-1 1M65 26v0m307 0v0M26 27h-1 1m14 0v0m-5 0l1 1-1-1m-21 0h0m18 0h0m20 0h0m2 0h1-1m293 1l1 1-1-1v-1h-1l1 1M25 27h-1l1 1v-1m34 0v0m16 0v2-1-1m306 0v1c0 1 0 1 0 0v-1M13 28h0m279 0v0c1-1 1-1 0 0M1 28h0m55 0c0 1 0 1 0 0m4 0h1c1 0 1 0 0 0h-1m261 0v0c1 0 1 0 0 0M12 28v0m385 1v-1 1M22 29c0-1 0-1 0 0m-12 0v0c1 0 0 0 0 0m13 1v-1 1m25 0h1v-1l-1 1m300-1l1 1v-1h-1M1 30h0m290 0l-1 1 1-1M56 30v0m293 1v-1 1m-29 0v-1 1M68 31c1 0 1 0 0 0m-51 0h0m356 0l1 1v-1h-1m-60 0l-1 1 1-1M16 32h0m32 0h1l-1-1v1m-30 0l1 1v-1h-1m301 0v0M15 32h0m14 0h1v0h-1m44 1c-1 1-1 1 0 0v-1 1m-48-1v0m17 0v0m23 0h-1l1 1v-1m-51 1h-1 1m17 0h0m274 0h1-1m29 0h1-1m16 0v1s1 0 0 0v-1M13 33h-1 1m290 0h0m5 0h1c0 1 0 0 0 0h-1m3 0v1l1-1h-1m22 0c-1 0-1 0 0 0m3 0h1-1m43 0v0m18 1v-1 1M40 33l-1 1h1v-1m249 1c0 1 0 1 0 0M39 34c-1 0-1 1 0 0m32 0v1l1-1h-1m-26 1v-1 1m286-1v0m7 0l1 1c0 1 0 1 0 0l-1-1M10 34l1 1v-1h-1m291 1s-1 1 0 0l1-1-1 1M70 35s-1 0 0 0m-32 0v0m36 0v0m3 0v0m-56 1c1 0 1 0 0 0 0-1 0-1 0 0m48 0c-1 0-1 0 0 0 0-1 0-1 0 0m219 0l1 1v-1-1l-1 1m30 0v-1 1M45 36s-1 0 0 0m-23 0v0m6 1v-1 1m347 0v-1 1m-24 0c0-1 0-1 0 0M44 37s-1 0 0 0m22 0h0m290 0v0M69 37h-1 1m328 1v3-1-3 1M38 37l1 1s1 0 0 0a41 41 0 01-1-1m262 0v0M23 38c0-1 0-1 0 0m61 0l-1-1 1 1m-43 0h0m299 1v-1 1M53 38h-1 1m13 0c1 0 1 0 0 0m-14 1h-1 1m304 0v0c0-1 0 0 0 0m10 0v1c0 2 0 2 1 0v-1s0 1 0 0h-1M85 39l1 1-1-1m233 1v1-1-1 1m-19-1v2a56 56 0 000-2M24 39v1h1l-1-1m305 0v0M30 39l1 1h-1v-1m20 0v1l1-1h-1m11 0v0m315 1h1-1m-88 2v-2 2M25 41c1 0 0 0 0 0m47 0c-1 0-1 0 0 0h0m-2 0v1l1-1h-1m316 0l-1 1h1v-1M32 41v0m49 1l1 1 1 1-2-2m-25 0h-1 1m331 0s0 1 0 0M26 42l1 1-1-1m32 0c0 1 0 1 0 0 1 0 1 0 0 0m-3 0l-1 1h1v-1m263 1v0-1 1M57 43h-1 1m17 0h0m-21 0v0h1-1m3 0l-1 1 1-1m273 1c0-1 0-1 0 0M52 44h0m27 0l1 1v-1h-1m-25 0h0m-3 0h0m14 0c-1 0-1 0 0 0m333 0v0m-32 2v-1 1m2-1h1v1l-1-2v1M38 45h0m32 0h0m-35 0l1 2v-1h-1v-1m27 0l1 1v-1h-1m294 0v0m-38 1v0M29 46h0m41 0v0m11 1v-1 1m306 1c0 2 0 2 0 0v-2 2M65 47h0m235 0l1 1v-1h-1m84 0v0s0-1 0 0m-96 1h1v-1l-1 1M47 48h1l-1-1v1m271 0v-1 1M57 48h0m12 0h1-1m233 0c-1 1 1 2 1 1h-1v-1m68 1v-1 1m-39 0l1 1v-1h-1m-20 0h0m26 0c0 1 0 1 0 0h0m61 1v0c0-1 0-1 0 0M84 50v-1 1m-10-1l1 1-1-1m215 1v-1 1M82 49v0m268 0v0M54 50s-1 0 0 0v-1 1m10 0c-1 0-1 0 0 0h0m-21 0v0m46 0c0 1 0 1 0 0m219 0c-1 0-1 0 0 0m4 0h0m58 0v0m-14 0v2c-1 0 0 0 0 0v-1-1M62 51l-2 1 2-1 1-1-1 1m325-1v0m-111 0h-1 1m9 0v5a47 47 0 001 0l-1-5M70 50a12 12 0 001 2l-1-2m-19 1h0m262 0c1 1 1 1 0 0M44 51l1 1-1-1m7 0h-1 1m-6 1h0m275 0v0M34 52c-1 0 0 0 0 0s0 1 0 0m25 0v1-1h0m255 0v0M40 52l1 1-1-1m15 0h-1 1m-8 0v1l1-1h-1m319 1v3-1-3 1M80 53l-1 1 1-1h1-1m-26 0h-1 1m29 0v0m-25 0l-2 1v1h1-1v-1l2-1c1 0 0 0 0 0m233 0v0h-1 1m23 0v0M73 53v0m9 1l-1 2v-1l1-1m6 1c0-1 0-1 0 0m299 1l1 4v-1-2l-1-3v2m11-1v0c0-1 0-1 0 0M36 55c1 0 0 0 0 0m39 0h1c1 0 1 0 0 0h-1m217 0l3 3v-1l-2-1-1-1m55 1l-1 1s0-1 0 0l1-1 1-1-1 1M57 56v-1 1m315 0c0-1 0-1 0 0M48 56h1-1m-6 0v0s1 0 0 0m5 0h-1 1m3 0h0m-5 1h-1v1l2-1h-1m34 0h-1 1m7 1c-1 0-1 0 0 0v-1 1m228-1l-1 2h-1 2l1-2h-1m31 0v0M77 57h0m-2 1c0-1 0-1 0 0m249 0h1-1m31 0v1l1-1h-1M41 58v0m12 0l1 1-1-1m327 1h0m-84 0h1-1M53 59l-1 3v-1l1-2c1 0 1 0 0 0m22 1v-1 1m9-1v0c1 0 0 0 0 0m213 0l1 1v-1h-1m30 0l1 1v-1h-1m14 0v1l1-1h-1M36 60h0m2 0h1s1 0 0 0h-1m337 0h2-2m-15 0h1-1m32 0h0s-1 0 0 0m-116 0v0m9 1v-1 1m16 0h1v-1l-1 1m6 0v-1 1m25 0v-1 1m5 0h1l-1-1v1M48 61h0m255 0h1-1m30 0h1-1M48 61l-1 1 1-1m-4 2l1 1-2-2 1 1m14-1h1c-1 0 0 0 0 0h-1m17 0v1l1-1h-1m-26 1h0m2 0v0m-5 3a22 22 0 011 2l-2-3 1 1m12 0h-1 1v-1 1m-5 0h1v-1l-1 1m-1 1l1-1-1 1m5 0v-1c0 1 0 1 0 0v1m-2 1l-1 1 2-1h-1m5 2c-1 1-1 1 0 0v-1 1m-9 0h0m-3 3s0 1 0 0v-1 1m10-1h-1 1c0-1 0 0 0 0" fill="#534d4d"/><path d="M68 1h1-1m-1 0h0m3 0h1-1m-6 2c-1 0-1 0 0 0 0 0 1 0 0 0m9 0h0s0-1 0 0m-6 4c-1 0-1 0 0 0l1-1-1 1m7-1v0m-5 2l1 2V9c0-2 0-2-1-1m-5 0h0m-17 3c1 0 1 0 0 0m19 1l1 1v-1h-1m9 1s0 1 0 0v-1 1m-8 0v1l1-1h-1m3 1v0c0-1 0 0 0 0m-10 0c0-1 0-1 0 0m0 1v0m7 1s-1 0 0 0c0 0 0-1 0 0m-19 0h-1 1m6 1h1-1m-36 0v0m2 0v1l1-1h-1m55 1v-1 1m-52 0l1 1-1-1m47 2v-1 1m-29 0h-1 1s0-1 0 0m8 0v0c1 0 0 0 0 0m-11 1h-1 1m8 1l1 1-1-1m4 0v0m13 0h1-1m-44 0h0m284 1l3-1h-1l-2 1m30-1h1-1m-32 1h0m6 0h2-2m24 0h0m7 0h0M51 23h1s1 0 0 0h-1m24 1s0 1 0 0v-1 1m285-1h1-1m4 0h1-1m22 0h1-1m4 0h1-1m-50 0h0m28 0h0m26 0h0M59 24s0 1 0 0M3 24v1l1-1H3m293 0v0h0m17 0v1h1l-1-1m13 0v0M70 25v0m-58 0l-1 1c0-1 0 0 0 0h1l1-1h-1m46 1v-1 1m-12 0l1-1-1 1m268 1v-1 1m-21-1v0m29 1v1l1-2-1 1M34 27h0m19 0h1-1M8 27c1 0 1 0 0 0m389 1v-1 1M24 28h-1 1m-11 0h-1 1m46 0h0m289 0v0c-1 0-1 0 0 0m8 0v4-2-2M6 29v-1 1m23 0h0m0 1v0m7 1v-1 1m19 0h0m-26 1h1v0h-1m14 0h0m6 0v0m348 1v-1 1M44 32l1 1-1-1m9 0v0c1 0 0 0 0 0m20 1l-1 1 1-1M3 33l1 1-1-1m302 0h1c1 0 0 0 0 0h-1M19 33l1 1-1-1m31 0h0m1 0h0m256 0h0m28 0h1-1M46 35v-1 1m310 1v-2 2m-5-1v0M77 35l1 1v-1h-1m-5 1h1l-1-1v1m-44 1h0c0-1 0-1 0 0m39-1v0m308 1h1c0 1 0 1 0 0h-1m22 1v-1 1M22 37l1 1v-1h-1m296 0v0M84 38l1 1v-1h-1m216 0v0M40 38v1l1-1h-1m23 0v1l1-1h-1m288 0v0m35 1h0m-19 0l-1 3v2l1-2v-2-1m-79 1v-1 1m11 0v0c0-1 0 0 0 0M30 39l1 1-1-1m310 3v-3 3M86 40l1 1-1-1m270 0v0m21 0s-1 0 0 0M74 40h1-1m3 0c-1 0-1 0 0 0m-46 1l1 1v-1l-1-1v1m30 0v-1c1 0 1 0 0 0v1m256 1l1 1-1-2v1M71 41v0m228 2v-1 1m99-1v0m-11 0v0M42 43l-1 1 1-1c1 0 1 0 0 0m326 1v-1 1M33 43l1 1-1-1m255 1v0M71 44v1l1-1h-1m9 0v1h1l-2-1h1m220 0v0m18 0v0M34 45h1l-1-1v1m317 0h1l-1-1v1M89 45v0m-54 1h0m363 0v2a51 51 0 000-2M49 47c-1 0-1 0 0 0 0-1 0-1 0 0m17-1v1h1l-1-1m321 1v0m-86 0v0M69 48h1v-1l-1 1m6 0c-1 0-1 0 0 0h0m-8 0v0m284 0v0m-50 0h0m37 0v0c1 0 1 0 0 0m28 1v1l1-1-1-1v1M74 49l1 1v-1h-1m215 0v-1 1M84 49v0m227 0h0M75 50h1-1m259 0h1-1m22 1v-1 1M52 50v0m32 1c0-1 0-1 0 0m191 4a42 42 0 001 5c0 1 0 0 0 0a127 127 0 01-1-5m95-4h0m17 1v-1 1M55 52h0m-1 0h0m-8 0v1l1-1h-1m2 0v0m242 0v1h0v-1m108 2v-1 1M81 55v1l1-2-1 1m290 0h1-1m-5 0v0M75 55s-1 0 0 0m240 1v-1 1m32-1v1l1-1h-1m-55 0l2 2-1-1-1-1m95 2c0 1 0 1 0 0v-1 1M49 56h1-1m273 0l1 1v-1h-1m33 1v-1 1m-9 0h-1 1c0-1 0-1 0 0M86 57h1-1m-50 0v0m39 1h1v-1l-1 1m-40 1v1l1-1h-1m292 0h-1 1m38 0v1l1-1h-1m-53 0v1h-1l1-1m62 1h1-1m4 0h1-1m-18 0h1-1m32 0h0s-1 0 0 0m-91 1v-1 1m6 0h1v-1l-1 1m24 0h1l-1-1v1m7 0v-1 1m-61 0h2-2m27 0h-1 1m30 0h-1 1M49 61l1 1v-1h-1m-2 1h1-1m29 0h1-1m-23 4l-1 1 2-1h-1m8 1h1-1m-6 0v1l1-1h-1m6 1v0m-7 1v-1 1m5 2l-1 1 1-1v-1 1m-2 2l1-1-1 1m-5 2" fill="#747474"/></g></svg>